<svg xml:space="preserve" id="Layer_1" x="0" y="0" version="1.1" viewBox="0 0 1920 1080"><path d="M844.8 610.3c-.5-10.3-.7-18.7-.7-21.2v-1.3H832l3.8 6.4c2.5 4.3 4.1 7.1 9 16.1zM970.8 607.3c1.4-6.2 2.7-11.6 3.8-15.6l1.1-4h-9.3l1 4.1c1 4.1 1.9 8.2 3.4 15.5zM1222.6 613.2c8.8 0 16.3-3.3 22.1-9.6 3.7-4.1 6.5-9.5 8.4-15.8h-61.4c5 15.8 16.2 25.4 30.9 25.4zM710.3 610.3c-.5-10.3-.7-18.7-.7-21.2v-1.3h-12.1l3.8 6.4c2.5 4.3 4.1 7.1 9 16.1zM205.7 611.5c14.1 0 21.6-7.4 21.6-21.3 0-.8 0-1.6-.1-2.3h-52.1v23.7h30.6zM518.2 611.5c15.3 0 26.2-8.6 31.2-23.7h-55.8v23.7h24.6zM1527.7 613.1c10.1 0 18.6-4.3 23.8-12 2.7-4 4.1-7.4 5.2-13.3h-59.9c4.9 15.9 16 25.3 30.9 25.3zM1026.4 607.3c2.5-11.6 3.1-14.9 3.3-15.7l1-3.8h-9.2l1.1 3.8c.7 2.9 1.5 5.8 3.8 15.7z" class="st0"/><path d="M227.3 590.1c0 13.9-7.5 21.3-21.6 21.3h-30.6v-23.7h-7.8v15.1c0 7.8-.2 11.4-1.1 16.8 4.4-.3 7.9-.4 13.1-.4h26.9c18.5 0 29.1-10.5 29.1-28.7 0-1 0-1.9-.1-2.9h-8c.1.9.1 1.7.1 2.5zM246.5 603.6c-3.5 9.5-4.2 11-6.7 15.7h10.9c.9-4.4 2.1-9 4-13.9l6.3-17.6h-8.7l-5.8 15.8zM312.1 605.4c1.6 4.3 3 9.2 4 13.9H327c-2-3.6-3.6-7.4-6.7-15.7l-5.8-15.8h-8.6l6.2 17.6zM389.6 591.5c0 13.6-9.3 21.8-24.6 21.8-9.5 0-17.2-3.6-21.4-9.9-2.6-4-3.6-7.4-4-14.2l-8.9 1.4c1.1 8.5 2.4 12.5 5.4 17.4 5.4 8.5 15.5 13.2 29 13.2 20.5 0 32.3-10.9 32.3-29.8 0-1.2-.1-2.4-.2-3.5h-8.1c.4 1.1.5 2.3.5 3.6zM412.1 603.9c0 6.5-.2 10.7-1 15.8 4.4-.3 7.4-.4 13-.4h35.7c6.3 0 9.4.3 13.2 1v-9.8c-4.4.7-7.9 1-13.2 1H420v-23.7h-7.9v16.1zM518.2 611.5h-24.6v-23.7h-7.8v16.1c0 6.5-.2 10.6-1 15.8 4.3-.3 7.3-.4 13-.4h20.5c11.8 0 22.1-4.3 29.4-12.3 4.5-5 8-11.5 10.1-19.2h-8.4c-5 15.1-15.9 23.7-31.2 23.7zM618.9 604.4c0 6.5-.2 10.1-1 14.9h9.9c-.7-4.4-1.1-9.2-1.1-14.9v-16.6h-7.8v16.6zM645.2 604c0 6.6-.2 10.7-1 15.3h9.6c-.7-4.5-1-8.5-1-15.3v-16.2h-7.6V604zM709.5 589.1c0 2.5.2 10.9.7 21.2-4.8-9.1-6.4-11.8-9-16.1l-3.8-6.4h-8.9l11.7 19.7c3.2 5.5 4.7 8.1 6.3 11.8h11.7c-.7-4.3-1-8.1-1-14.9v-16.6h-7.8v1.3zM844 589.1c0 2.5.2 10.9.7 21.2-4.8-9.1-6.4-11.8-9-16.1l-3.8-6.4H823l11.7 19.7c3.2 5.5 4.7 8.1 6.3 11.8h11.7c-.7-4.3-1-8.1-1-14.9v-16.6H844v1.3zM779.7 604c0 6.6-.2 10.7-1 15.3h9.6c-.7-4.5-1-8.5-1-15.3v-16.2h-7.6V604zM931.2 620.3zM870.4 603.9c0 6.5-.2 10.7-1 15.8 4.5-.3 7.4-.4 13-.4H918c6.3 0 9.4.3 13.2 1v-9.8c-4.4.7-7.9 1-13.2 1h-39.7v-23.7h-7.9v16.1zM974.6 591.8c-1.1 4-2.5 9.4-3.8 15.6-1.5-7.3-2.3-11.4-3.3-15.4l-1-4.1H959l4.7 18c3 11 3 11 3.3 13.5h7.8c.5-3.2 1-5.1 3.1-13.1l5.1-18.4h-7.2l-1.2 3.9zM1029.8 591.6c-.2.8-.9 4.1-3.3 15.7-2.3-9.9-3.1-12.8-3.8-15.7l-1.1-3.8h-7.3l5.1 18.4c2.6 10.1 2.6 10.1 3.1 13.1h7.9c.5-3 .6-3.4 3.2-13.5l4.7-18h-7.6l-.9 3.8zM1138.1 604.4c0 6.2-.2 10.1-1 14.9h10.1c-.7-5-1-8.3-1-14.9v-16.6h-8.1v16.6zM1244.7 603.6c-5.8 6.3-13.3 9.6-22.1 9.6-14.7 0-25.9-9.7-30.9-25.4h-8.7c5.4 20.9 19.5 33.4 39.3 33.4 19.8 0 34-12.5 39.3-33.4h-8.6c-1.8 6.3-4.6 11.7-8.3 15.8zM1332.8 595.5c5.3 13.6 7.2 19.7 7.4 23.8h11.2c-1.7-3.2-3.1-6.3-5.6-12.5-2.9-7.3-5.2-12.9-7.9-19h-8.4c1.1 2.3 2.2 4.8 3.3 7.7zM1278.7 604.4c0 6.5-.2 10.1-1 14.9h9.8c-.7-4.8-1-8.3-1-14.9v-16.6h-7.8v16.6zM1416.4 608.2c3.8 5.4 5.6 8.1 7 11.2h12.2c-3.3-3.3-4.4-4.8-11.3-14.5l-12.3-17h-10.1l14.5 20.3zM1363.6 604.4c0 6.2-.2 10.2-1 14.9h9.8c-.7-4.7-1-8.1-1-14.9v-16.6h-7.8v16.6zM1551.5 601.1c-5.2 7.7-13.7 12-23.8 12-14.9 0-26-9.4-30.9-25.3h-8.5c2.2 8.5 5.9 15.8 10.9 21.5 6.8 7.7 16.5 11.8 28 11.8 13.7 0 24.9-5.8 31.7-16.3 2.6-4.1 4.1-7.7 6.2-15.2l-6.3-1.9h-2.1c-1.1 6.1-2.5 9.4-5.2 13.4zM1577.6 604.4c0 6.5-.2 10.1-1 14.9h9.9c-.7-4.4-1.1-9.2-1.1-14.9v-16.6h-7.8v16.6zM1629.5 604.4c0 6.3-.2 10.5-1 14.9h9.8c-.7-4.8-1-8.4-1-14.9v-16.6h-7.8v16.6zM1712.6 604.4c0 6.2-.2 10.1-1 14.9h10.1c-.7-5-1-8.3-1-14.9v-16.6h-8.1v16.6zM1750.2 607.3h10.7v12h-10.7zM227.8 560.3c-3.3-3.2-6.3-4.7-11.9-5.8 5-1.8 7.2-3 9.6-5.4 4.4-4.3 6.7-10.3 6.7-18.2 0-16.1-9.9-25.1-27.4-25.1h-25.5c-7 0-9.3 0-13-.3.7 4.5 1 8.3 1 14v58.2h7.8v-19.2h30.2c13.6 0 21.1 6.5 21.9 19.2h8c-.4-7.4-3-13.3-7.4-17.4zm-22.7-9.4h-30v-37.2H205c12.7 0 19.2 6.1 19.2 17.9 0 12.3-7 19.3-19.1 19.3zM288.3 505.8h-10.1c-.5 2.9-1.6 6.1-4 12.7l-21.9 59.3h8.7l.3-.9h44.2l.3.9h8.6l-21.9-59.3c-3.2-8.5-3.8-10.3-4.2-12.7zM264 569.1l16.4-46.7c.5-1.2.5-1.2 3-9.2 2.3 7.8 2.5 8 2.8 9.2l16.5 46.7H264zM370.6 553.1c-14.2-3.3-14.2-3.3-17.8-5-7.5-3.3-11.2-8.7-11.2-16.3 0-11.7 9.2-19.8 22.6-19.8 8.3 0 14.8 2.9 18.9 8.4 2.5 3.3 3.6 6.1 4.4 11.8l8.5-1.5c-1.2-6.9-2.5-10.2-5.2-14.2-5.4-8.1-14.7-12.4-26.4-12.4-18.6 0-30.7 11-30.7 27.8 0 9.7 4.1 17.1 12 21.8 4.1 2.3 8.5 3.9 16.4 5.8 14.2 3.3 15.9 4 20.1 6.6 4 2.5 6.4 6.4 7.2 11.6h8.1c-1.2-13.2-9.2-20.4-26.9-24.6zM453 558.8c6.2 0 9.1.3 13.3 1V550c-4.8.7-8 1-13.3 1h-33v-37.2h38.5c6 0 9.3.3 13.3 1V505c-4.3.7-8 1-13.3 1H424c-5.6 0-8.5-.1-13-.4.7 5.8 1 9.6 1 15.2V578h7.9v-19H453zM548.4 518.1c-7.3-8.1-17.6-12.3-30.2-12.3h-20.4c-5.7 0-8.5-.1-13-.4.7 5.8 1 9.8 1 15.2v57.2h7.8v-64.1h25.2c21.5 0 33.7 15.6 33.7 42.8 0 8.1-1.1 15.2-3.1 21.3h8.4c1.8-6.3 2.7-13.4 2.7-21 0-16.7-4.1-29.9-12.1-38.7zM627.8 505.8h-9.9c.7 4.8 1 8.5 1 14.9v57.1h7.8v-57.1c-.1-5.3.3-10.5 1.1-14.9zM661.5 517.7c-3.6-5.9-5.1-8.8-6-11.8h-11.2c.7 4.8 1 8.7 1 14.9v57.1h7.6v-41.1c0-4.3-.1-10.6-.6-21.2 2.8 5.6 5.8 11.2 8.4 15.4l27.9 46.9h8.9l-36-60.2zM718.3 505.8h-9.8c.7 4.7 1 8.7 1 15v56.9h7.8v-56.9c0-6.6.2-10.3 1-15zM852.8 505.8H843c.7 4.7 1 8.7 1 15v56.9h7.8v-56.9c0-6.6.2-10.3 1-15zM796 517.7c-3.6-5.9-5.1-8.8-6-11.8h-11.2c.7 4.8 1 8.7 1 14.9v57.1h7.6v-41.1c0-4.3-.1-10.6-.6-21.2 2.8 5.6 5.8 11.2 8.4 15.4l27.9 46.9h8.9l-36-60.2zM911.4 558.8c6.2 0 9.1.3 13.3 1V550c-4.8.7-8 1-13.3 1h-33v-37.2h38.5c6 0 9.3.3 13.3 1V505c-4.3.7-8 1-13.3 1h-34.5c-5.6 0-8.5-.1-13-.4.7 5.8 1 9.6 1 15.2V578h7.9v-19h33.1zM1005.3 519.3c-1.6-5.7-2.3-9.4-3-13.5h-7.7c-.4 3.2-1.5 8.5-2.8 13.5l-16.2 58.5h7.2l11.9-43.2c.9-3.2 2.3-9.1 3.7-15.4 1 5.1 1.9 8.8 3.7 15.4l12 43.2h7.3l-16.1-58.5zM1058 505.8h-10.5c-.2 4.1-1 8.7-2.3 14.3l-14.5 57.6h7.6l14.8-56.5c1.9-7.2 3.1-11 4.9-15.4zM952 520.2c-1.4-5.8-2.2-10.3-2.3-14.3h-10.6c1.8 4.4 3.2 8.3 5.1 15.4l14.8 56.5h7.5L952 520.2zM1174.5 517.3c3.7-6.3 5.4-9.1 7.3-11.4h-11.5c-1 3.2-2.2 5.9-5.9 12.4l-22.2 39.4-22.1-39.4c-4.1-7-5.1-9.2-6.1-12.4h-11.3c2.1 2.9 4 5.9 7.2 11.4l28.3 48.4v12.2h8.1v-12l28.2-48.6zM1222.4 503.9c-11.4 0-21.1 4.3-28.5 12.4-8.5 9.4-13.2 24-13.2 41.3 0 7.4.8 14.1 2.4 20.2h8.7c-1.9-6-2.9-12.8-2.9-20.3 0-27.5 13.3-45.7 33.7-45.7 8.8 0 16.4 3.5 22.3 9.9 7.3 8.1 11.1 20.4 11.1 35.8 0 7.4-1 14.3-2.8 20.3h8.6c1.6-6.1 2.4-12.8 2.4-20.2-.1-32.8-16.3-53.7-41.8-53.7zM1323.7 558.6c6.5-1.6 9.5-3 13.2-6.5 5.2-5 7.7-11.4 7.7-20.4 0-16.8-9.6-25.9-27.3-25.9h-26.5c-5.4 0-8.5-.1-13-.4.7 5.6 1 9.8 1 15.3v57.1h7.8v-16.7h24.1c8.4 0 13.2 3.9 19 16.7h8.4c-.6-1.3-1.2-2.7-1.8-4-4.5-9.7-7.8-13.6-12.6-15.2zm-6.9-5.4h-30.4v-39.5h31.2c12.2 0 18.8 6.6 18.8 19 0 6.1-1.6 10.8-4.8 14.3-3.5 4-8.9 6.2-14.8 6.2zM1418.3 519.9c.2-.3 1.7-1.9 4.1-4.8 1.4-1.5 3.2-3.4 5.3-5.8 1.2-1.4 1.8-1.9 3.2-3.4h-12.3c-1.5 3-3.6 5.9-8.1 11l-39.1 43.5v-39.7c0-6.6.2-10.5 1-14.9h-9.8c.7 5 1 8.8 1 14.9v57.1h7.8v-6.4l14.6-16.1 16 22.5h10.1l-20.5-28.4 26.7-29.5zM1494 557.4c0-28 13.1-45.6 33.7-45.6 9.2 0 17 3.6 22.2 10.3 2.6 3.3 4 6.1 5.9 12.3l8-2.9c-3.1-8.3-5.3-12.1-9.4-16.7-6.5-7.2-15.8-10.9-27-10.9-11.6 0-20.9 3.9-27.9 11.7-8.9 9.8-13.7 24.7-13.7 42.2 0 7.2.8 13.9 2.4 20h8.5c-1.7-6-2.7-12.8-2.7-20.4z"/><path fill="#fff" stroke="#000" stroke-miterlimit="10" d="M1556.7 587.8h2.1l-2-.6c0 .2-.1.4-.1.6z"/><path d="M1586.5 505.8h-9.9c.7 4.8 1 8.5 1 14.9v57.1h7.8v-57.1c0-5.3.3-10.5 1.1-14.9zM1657.3 513.7c6.3 0 9.6.3 13.6 1v-9.8c-3.9.7-6.9 1-13.6 1h-47.8c-6.4 0-9.5-.3-13.4-1v9.8c3.9-.7 7.4-1 13.4-1h20v64.1h7.8v-64.1h20zM1748.9 517.3c3.7-6.3 5.4-9.1 7.3-11.4h-11.5c-1 3.2-2.2 5.9-5.9 12.4l-22.2 39.4-22.1-39.4c-4.1-7-5.1-9.2-6.1-12.4h-11.3c2.1 2.9 4 5.9 7.2 11.4l28.3 48.4v12.2h8.1v-12l28.2-48.6z"/></svg>