<?xml version="1.0" encoding="utf-8"?>
<!-- Generator: Adobe Illustrator 24.3.0, SVG Export Plug-In . SVG Version: 6.00 Build 0)  -->
<svg version="1.1" id="Layer_1" xmlns="http://www.w3.org/2000/svg" xmlns:xlink="http://www.w3.org/1999/xlink" x="0px" y="0px"
	 viewBox="0 0 1920 1080" style="enable-background:new 0 0 1920 1080;" xml:space="preserve">
<style type="text/css">
	.st0{fill:none;}
</style>
<g>
	<polygon class="st0" points="1055.8,827.7 1039.2,827.7 1047.5,847.9 	"/>
	<path class="st0" d="M1386.3,851.6c-0.5-10.3-0.7-18.7-0.7-21.2v-2.7h-12.9l4.7,7.8C1379.9,839.8,1381.5,842.6,1386.3,851.6z"/>
	<path class="st0" d="M899.8,852.7L899.8,852.7c15.8,0,26.9-9.1,31.7-25h-56.2v25H899.8z"/>
	<polygon class="st0" points="1584.8,827.7 1568.3,827.7 1576.5,847.9 	"/>
	<path class="st0" d="M841.8,851.6c-0.5-10.3-0.7-18.7-0.7-21.2v-2.7h-12.9l4.7,7.8C835.4,839.8,837,842.5,841.8,851.6z"/>
	<path d="M116.4,845.7c0,6.3-0.2,10.1-1,14.9h9.9c-0.7-4.5-1-8.4-1-14.9v-18h-7.9V845.7z"/>
	<polygon points="115.4,860.6 115.4,860.6 115.4,860.6 	"/>
	<path d="M193.2,845c0,6.5-0.2,11-1,16c4.3-0.3,7.4-0.4,13-0.4v0H241c6.4,0,9.6,0.3,13.4,1v-9.9c-4.8,0.7-7.9,1-13.4,1h-40v-24.9
		h-7.8V845z"/>
	<path d="M264.9,845.2c0,6.5-0.2,10.7-1,15.8c4.4-0.3,7.4-0.4,13-0.4h35.7c6.3,0,9.4,0.3,13.2,1v-9.8c-4.4,0.7-7.9,1-13.2,1h-39.7
		v-25h-7.9V845.2z"/>
	<path d="M347.1,827.7l-6.4,17.2c-3.5,9.5-4.2,11-6.7,15.7h10.9c0.9-4.4,2.1-9,4-13.9l6.7-18.5"/>
	<path d="M399.7,828.2l6.7,18.5c1.6,4.3,3,9.2,4,13.9h10.9c-2-3.6-3.6-7.4-6.7-15.7l-6.4-17.2"/>
	<path d="M483.8,832.8c0,13.6-9.3,21.8-24.6,21.8c-9.5,0-17.1-3.6-21.3-9.9c-2.6-4-3.6-7.4-4-14.2l-8.9,1.4
		c1.1,8.5,2.4,12.5,5.4,17.4c5.4,8.5,15.5,13.2,29,13.2c20.5,0,32.3-10.9,32.3-29.8c0-1.7-0.1-3.4-0.3-4.9h-8.2
		C483.7,829.3,483.8,831,483.8,832.8z"/>
	<path d="M506.4,845.2c0,6.5-0.2,10.7-1,15.8c4.4-0.3,7.4-0.4,13-0.4H554c6.3,0,9.4,0.3,13.2,1v-9.8c-4.4,0.7-7.9,1-13.2,1h-39.7
		v-25h-7.9V845.2z"/>
	<path d="M680.5,832.8c0,13.6-9.3,21.8-24.6,21.8c-9.5,0-17.1-3.6-21.3-9.9c-2.6-4-3.6-7.4-4-14.2l-8.9,1.4
		c1.1,8.5,2.3,12.5,5.4,17.4c5.4,8.5,15.5,13.2,29,13.2c20.5,0,32.3-10.9,32.3-29.8c0-1.7-0.1-3.4-0.3-4.9H680
		C680.3,829.3,680.5,831,680.5,832.8z"/>
	<path d="M703,845.2c0,6.5-0.2,10.7-1,15.8c4.5-0.3,7.4-0.4,13-0.4h35.7c6.3,0,9.4,0.3,13.2,1v-9.8c-4.4,0.7-7.9,1-13.2,1h-39.7v-25
		H703V845.2z"/>
	<polygon points="763.8,861.6 763.8,861.6 763.8,861.6 	"/>
	<path d="M841.1,830.4c0,2.5,0.2,10.9,0.7,21.2c-4.8-9.1-6.4-11.8-9-16.1l-4.7-7.8h-8.9l12.5,21c3.2,5.5,4.7,8.1,6.3,11.8h11.7
		c-0.7-4.3-1-8.1-1-14.9v-18h-7.8V830.4z"/>
	<path d="M776.8,845.3c0,6.6-0.2,10.7-1,15.3h9.6c-0.7-4.5-1-8.5-1-15.3v-17.6h-7.6V845.3z"/>
	<path d="M899.8,852.7L899.8,852.7l-24.6,0v-25h-7.8v17.4c0,6.5-0.2,10.6-1,15.8c4.3-0.3,7.3-0.4,13-0.4h20.5
		c11.8,0,22.1-4.3,29.4-12.3c4.8-5.3,8.4-12.3,10.5-20.6h-8.3C926.7,843.7,915.6,852.7,899.8,852.7z"/>
	<path d="M1000.5,845.4c0,6.5-0.2,10.3-1,15.2h9.6c-0.7-4.7-1-8.5-1-15.2v-17.7h-7.6V845.4z"/>
	<path d="M1086.9,845.4c0,5.9-0.2,10.3-0.9,15.2h9.4c-0.7-4.8-1-8.4-1-15.2v-17.7h-7.5V845.4z"/>
	<path d="M1047.5,847.9l-8.3-20.2h-7.8l8,19.5c2.5,6.2,3.7,10,4.2,13.4v0h7.4c0.7-3.7,1.8-7,4.4-13.2l8.1-19.7h-7.8L1047.5,847.9z"
		/>
	<path d="M1113.2,845.2c0,6.5-0.2,10.7-1,15.8c4.4-0.3,7.4-0.4,13-0.4h35.7c6.3,0,9.4,0.3,13.2,1v-9.8c-4.4,0.7-7.9,1-13.2,1h-39.7
		v-25h-7.9V845.2z"/>
	<path d="M1236.2,827.7l-6.4,17.2c-3.5,9.5-4.2,11-6.7,15.7h10.9c0.9-4.4,2.1-9,3.9-13.9l6.7-18.5"/>
	<path d="M1288.9,828.2l6.7,18.5c1.6,4.3,3,9.2,3.9,13.9h10.8c-2-3.6-3.6-7.4-6.7-15.7l-6.4-17.2"/>
	<path d="M1321.3,845.3c0,6.6-0.2,10.7-1,15.3h9.6c-0.7-4.5-1-8.5-1-15.3v-17.6h-7.6V845.3z"/>
	<path d="M1385.6,830.4c0,2.5,0.2,10.9,0.7,21.2c-4.8-9.1-6.4-11.8-9-16.1l-4.7-7.8h-8.9l12.5,21c3.2,5.5,4.7,8.1,6.3,11.8h11.7
		c-0.7-4.3-1-8.1-1-14.9v-18h-7.8V830.4z"/>
	<path d="M1455.8,845.2c0,6.5-0.2,10.7-1,15.8c4.4-0.3,7.4-0.4,13-0.4h35.7c6.3,0,9.4,0.3,13.2,1v-9.8c-4.4,0.7-7.9,1-13.2,1h-39.7
		v-25h-7.9V845.2z"/>
	<path d="M1576.5,847.9l-8.3-20.2h-7.8l8,19.5c2.5,6.2,3.7,10,4.2,13.4v0h7.4c0.7-3.7,1.8-7,4.4-13.2l8.1-19.7h-7.8L1576.5,847.9z"
		/>
	<path d="M1615.9,845.4c0,5.9-0.2,10.3-0.9,15.2h9.4c-0.7-4.8-1-8.4-1-15.2v-17.7h-7.5V845.4z"/>
	<path d="M1529.5,845.4c0,6.5-0.2,10.3-1,15.2h9.6c-0.7-4.7-1-8.5-1-15.2v-17.7h-7.6V845.4z"/>
	<path d="M1647.4,827.7l-6.4,17.2c-3.5,9.5-4.2,11-6.7,15.7h10.9c0.9-4.4,2.1-9,3.9-13.9l6.7-18.5"/>
	<path d="M1700,828.2l6.7,18.5c1.6,4.3,3,9.2,3.9,13.9h10.8c-2-3.6-3.6-7.4-6.7-15.7l-6.4-17.2"/>
	<path d="M1732.4,845.7c0,6.5-0.2,10.1-1,14.9h9.9c-0.7-4.4-1.1-9.2-1.1-14.9v-18h-7.8V845.7z"/>
	<path d="M1758.7,827.7V845c0,6.5-0.2,11-1,16c4.3-0.3,7.4-0.4,13-0.4v0h35.8c6.4,0,9.6,0.3,13.4,1v-9.9c-4.8,0.7-7.9,1-13.4,1h-40
		v-24.9H1758.7z"/>
	<g>
		<path d="M153.4,747.1h-25c-5.4,0-8.5-0.1-13-0.4c0.7,5.6,1,9.8,1,15.2v55.8h7.9v-10.2h28.6c18.4,0,29.1-11.4,29.1-31
			C182,757.7,171.7,747.1,153.4,747.1z M152.8,799.6L152.8,799.6l-28.5,0V755h28.5c13.8,0,21.2,7.6,21.2,21.9
			C174,791.5,166.4,799.6,152.8,799.6z"/>
	</g>
	<path d="M202,747.1h-9.8c0.7,4.8,1,8.7,1,15.2v55.4h7.8v-55.4C201,755.5,201.2,752.1,202,747.1z"/>
	<path d="M305.9,800c6.2,0,9.1,0.3,13.3,1v-9.8c-4.8,0.7-8,1-13.3,1h-33V755h38.5c6,0,9.3,0.3,13.3,1v-9.8c-4.3,0.7-8,1-13.3,1
		h-34.5c-5.6,0-8.5-0.1-13-0.4c0.7,5.8,1,9.6,1,15.2v55.8h7.9V800H305.9z"/>
	<g>
		<path d="M386.8,759.8c-3.2-8.5-3.8-10.3-4.2-12.7h-10.1c-0.5,2.9-1.6,6.1-4,12.7l-21.4,57.9h61.1L386.8,759.8z M374.7,763.7
			c0.5-1.2,0.5-1.2,3-9.2c2.4,7.8,2.5,8,2.8,9.2l16.5,46.7h-38.8L374.7,763.7z"/>
	</g>
	<path d="M464.9,794.4c-14.2-3.3-14.2-3.3-17.8-5c-7.5-3.3-11.2-8.7-11.2-16.3c0-11.7,9.2-19.8,22.6-19.8c8.3,0,14.8,2.9,18.9,8.4
		c2.5,3.3,3.6,6.1,4.4,11.8l8.5-1.5c-1.2-6.9-2.5-10.2-5.2-14.2c-5.4-8.1-14.7-12.4-26.4-12.4c-18.6,0-30.7,11-30.7,27.8
		c0,9.7,4.1,17.1,12,21.8c4.1,2.3,8.5,3.9,16.4,5.8c14.2,3.3,15.9,4,20.1,6.6c3.7,2.3,6,5.7,6.9,10.2h8.2
		C490,805.3,482,798.4,464.9,794.4z"/>
	<path d="M547.3,800c6.2,0,9.1,0.3,13.3,1v-9.8c-4.8,0.7-8,1-13.3,1h-33V755h38.5c6,0,9.3,0.3,13.3,1v-9.8c-4.3,0.7-8,1-13.3,1
		h-34.5c-5.6,0-8.5-0.1-13-0.4c0.7,5.8,1,9.6,1,15.2v55.8h7.9V800H547.3z"/>
	<path d="M661.5,794.4c-14.2-3.3-14.2-3.3-17.8-5c-7.5-3.3-11.2-8.7-11.2-16.3c0-11.7,9.2-19.8,22.6-19.8c8.3,0,14.8,2.9,18.9,8.4
		c2.5,3.3,3.6,6.1,4.4,11.8l8.5-1.5c-1.2-6.9-2.5-10.2-5.2-14.2c-5.4-8.1-14.7-12.4-26.4-12.4c-18.6,0-30.7,11-30.7,27.8
		c0,9.7,4.1,17.1,12,21.8c4.1,2.3,8.5,3.9,16.4,5.8c14.2,3.3,15.9,4,20.1,6.6c3.7,2.3,6,5.7,6.9,10.2h8.2
		C686.6,805.3,678.6,798.4,661.5,794.4z"/>
	<path d="M744,800c6.2,0,9.1,0.3,13.3,1v-9.8c-4.8,0.7-8,1-13.3,1h-33V755h38.5c6,0,9.3,0.3,13.3,1v-9.8c-4.3,0.7-8,1-13.3,1H715
		c-5.6,0-8.5-0.1-13-0.4c0.7,5.8,1,9.6,1,15.2v55.8h7.9V800H744z"/>
	<path d="M793.1,759c-3.6-5.9-5.1-8.8-6-11.8h-11.2c0.7,4.8,1,8.7,1,14.9v55.7h7.6V778c0-4.3-0.1-10.6-0.6-21.2
		c2.8,5.6,5.8,11.2,8.4,15.4l27.1,45.5h8.9L793.1,759z"/>
	<path d="M849.8,747.1h-9.8c0.7,4.7,1,8.7,1,15v55.6h7.8v-55.6C848.8,755.5,849.1,751.8,849.8,747.1z"/>
	<path d="M930,759.4c-7.3-8.1-17.6-12.3-30.2-12.3h-20.4c-5.7,0-8.5-0.1-13-0.4c0.7,5.8,1,9.8,1,15.2v55.8h7.8V755h25.2
		c21.5,0,33.7,15.6,33.7,42.8c0,7.5-0.9,14.1-2.6,19.9h8.3c1.5-5.9,2.3-12.5,2.3-19.6C942.1,781.4,938.1,768.2,930,759.4z"/>
	<path d="M1095.4,747.1h-11.8c-0.7,3.7-2,7.7-4.2,13l-23.6,57.6h7.8l17.2-41.8c2.1-5.2,3.8-10.2,6.8-19.7
		c-0.6,15.3-0.7,19.6-0.7,24.7v36.8h7.5v-55.3C1094.4,756,1094.7,752.1,1095.4,747.1z"/>
	<path d="M1015.7,760.1c-1.9-4.3-3.2-8.8-4.1-13h-12.1c0.7,4.8,1,9.1,1,15.3v55.3h7.6v-36.8c0-4.8-0.2-10.5-0.9-24.7
		c3.3,10,4.9,14.5,7.2,20.1l17,41.4h7.8L1015.7,760.1z"/>
	<path d="M1154.2,800c6.2,0,9.1,0.3,13.3,1v-9.8c-4.8,0.7-8,1-13.3,1h-32.9V755h38.5c6,0,9.3,0.3,13.3,1v-9.8c-4.3,0.7-8,1-13.3,1
		h-34.6c-5.6,0-8.5-0.1-13-0.4c0.7,5.8,1,9.6,1,15.2v55.8h7.9V800H1154.2z"/>
	<g>
		<path d="M1275.9,759.8c-3.2-8.5-3.8-10.3-4.2-12.7h-10.1c-0.5,2.9-1.6,6.1-3.9,12.7l-21.4,57.9h61.1L1275.9,759.8z M1263.8,763.7
			c0.5-1.2,0.5-1.2,3-9.2c2.3,7.8,2.5,8,2.8,9.2l16.5,46.7h-38.8L1263.8,763.7z"/>
	</g>
	<path d="M1394.3,747.1h-9.8c0.7,4.7,1,8.7,1,15v55.6h7.8v-55.6C1393.3,755.5,1393.6,751.8,1394.3,747.1z"/>
	<path d="M1337.6,759c-3.6-5.9-5.1-8.8-6.1-11.8h-11.2c0.7,4.8,1,8.7,1,14.9v55.7h7.6V778c0-4.3-0.1-10.6-0.6-21.2
		c2.8,5.6,5.8,11.2,8.4,15.4l27.1,45.5h8.9L1337.6,759z"/>
	<path d="M1496.7,800c6.2,0,9.1,0.3,13.3,1v-9.8c-4.8,0.7-8,1-13.3,1h-32.9V755h38.5c6,0,9.3,0.3,13.3,1v-9.8c-4.3,0.7-8,1-13.3,1
		h-34.6c-5.6,0-8.5-0.1-13-0.4c0.7,5.8,1,9.6,1,15.2v55.8h7.9V800H1496.7z"/>
	<path d="M1624.4,747.1h-11.8c-0.7,3.7-2,7.7-4.2,13l-23.6,57.6h7.8l17.2-41.8c2.1-5.2,3.8-10.2,6.8-19.7
		c-0.6,15.3-0.7,19.6-0.7,24.7v36.8h7.5v-55.3C1623.4,756,1623.7,752.1,1624.4,747.1z"/>
	<path d="M1544.7,760.1c-1.8-4.3-3.2-8.8-4.1-13h-12.1c0.7,4.8,1,9.1,1,15.3v55.3h7.6v-36.8c0-4.8-0.2-10.5-0.9-24.7
		c3.3,10,4.9,14.5,7.2,20.1l17,41.4h7.8L1544.7,760.1z"/>
	<g>
		<path d="M1687,759.8c-3.2-8.5-3.8-10.3-4.2-12.7h-10.1c-0.5,2.9-1.6,6.1-3.9,12.7l-21.4,57.9h61.1L1687,759.8z M1674.9,763.7
			c0.5-1.2,0.5-1.2,3-9.2c2.3,7.8,2.5,8,2.8,9.2l16.5,46.7h-38.8L1674.9,763.7z"/>
	</g>
	<path d="M1741.2,747.1h-9.9c0.7,4.8,1,8.5,1,14.9v55.7h7.8V762C1740.1,756.6,1740.5,751.5,1741.2,747.1z"/>
	<path d="M1766.5,762.3c0-6.8,0.2-10.2,1-15.2h-9.8c0.7,4.8,1,8.7,1,15.2v55.4h7.8V762.3z"/>
</g>
</svg>
