<?xml version="1.0" encoding="utf-8"?>
<!-- Generator: Adobe Illustrator 24.3.0, SVG Export Plug-In . SVG Version: 6.00 Build 0)  -->
<svg version="1.1" id="Layer_1" xmlns="http://www.w3.org/2000/svg" xmlns:xlink="http://www.w3.org/1999/xlink" x="0px" y="0px"
	 viewBox="0 0 1920 1080" style="enable-background:new 0 0 1920 1080;" xml:space="preserve">
<style type="text/css">
	.st0{fill:none;}
	.st1{fill:#FFFFFF;stroke:#000000;stroke-miterlimit:10;}
</style>
<g>
	<path class="st0" d="M844.8,610.3c-0.5-10.3-0.7-18.7-0.7-21.2v-1.3h-12.1l3.8,6.4C838.3,598.5,839.9,601.3,844.8,610.3z"/>
	<path class="st0" d="M970.8,607.3c1.4-6.2,2.7-11.6,3.8-15.6l1.1-4h-9.3l1,4.1C968.4,595.9,969.3,600,970.8,607.3z"/>
	<path class="st0" d="M1222.6,613.2c8.8,0,16.3-3.3,22.1-9.6c3.7-4.1,6.5-9.5,8.4-15.8h-61.4
		C1196.7,603.6,1207.9,613.2,1222.6,613.2z"/>
	<path class="st0" d="M710.3,610.3c-0.5-10.3-0.7-18.7-0.7-21.2v-1.3h-12.1l3.8,6.4C703.8,598.5,705.4,601.3,710.3,610.3z"/>
	<path class="st0" d="M205.7,611.5c14.1,0,21.6-7.4,21.6-21.3c0-0.8,0-1.6-0.1-2.3h-52.1v23.7H205.7z"/>
	<path class="st0" d="M518.2,611.5L518.2,611.5c15.3,0,26.2-8.6,31.2-23.7h-55.8v23.7H518.2z"/>
	<path class="st0" d="M1527.7,613.1c10.1,0,18.6-4.3,23.8-12c2.7-4,4.1-7.4,5.2-13.3h-59.9C1501.7,603.7,1512.8,613.1,1527.7,613.1z
		"/>
	<path class="st0" d="M1026.4,607.3c2.5-11.6,3.1-14.9,3.3-15.7l1-3.8h-9.2l1.1,3.8C1023.3,594.5,1024.1,597.4,1026.4,607.3z"/>
	<path d="M227.3,590.1c0,13.9-7.5,21.3-21.6,21.3h-30.6v-23.7h-7.8v15.1c0,7.8-0.2,11.4-1.1,16.8c4.4-0.3,7.9-0.4,13.1-0.4v0h26.9
		c18.5,0,29.1-10.5,29.1-28.7c0-1,0-1.9-0.1-2.9h-8C227.3,588.5,227.3,589.3,227.3,590.1z"/>
	<path d="M246.5,603.6c-3.5,9.5-4.2,11-6.7,15.7h10.9c0.9-4.4,2.1-9,4-13.9l6.3-17.6h-8.7L246.5,603.6z"/>
	<path d="M312.1,605.4c1.6,4.3,3,9.2,4,13.9h10.9c-2-3.6-3.6-7.4-6.7-15.7l-5.8-15.8h-8.6L312.1,605.4z"/>
	<path d="M389.6,591.5c0,13.6-9.3,21.8-24.6,21.8c-9.5,0-17.2-3.6-21.4-9.9c-2.6-4-3.6-7.4-4-14.2l-8.9,1.4
		c1.1,8.5,2.4,12.5,5.4,17.4c5.4,8.5,15.5,13.2,29,13.2c20.5,0,32.3-10.9,32.3-29.8c0-1.2-0.1-2.4-0.2-3.5h-8.1
		C389.5,589,389.6,590.2,389.6,591.5z"/>
	<path d="M412.1,603.9c0,6.5-0.2,10.7-1,15.8c4.4-0.3,7.4-0.4,13-0.4h35.7c6.3,0,9.4,0.3,13.2,1v-9.8c-4.4,0.7-7.9,1-13.2,1H420
		v-23.7h-7.9V603.9z"/>
	<path d="M518.2,611.5L518.2,611.5l-24.6,0v-23.7h-7.8v16.1c0,6.5-0.2,10.6-1,15.8c4.3-0.3,7.3-0.4,13-0.4h20.5
		c11.8,0,22.1-4.3,29.4-12.3c4.5-5,8-11.5,10.1-19.2h-8.4C544.4,602.9,533.5,611.5,518.2,611.5z"/>
	<path d="M618.9,604.4c0,6.5-0.2,10.1-1,14.9h9.9c-0.7-4.4-1.1-9.2-1.1-14.9v-16.6h-7.8V604.4z"/>
	<path d="M645.2,604c0,6.6-0.2,10.7-1,15.3h9.6c-0.7-4.5-1-8.5-1-15.3v-16.2h-7.6V604z"/>
	<path d="M709.5,589.1c0,2.5,0.2,10.9,0.7,21.2c-4.8-9.1-6.4-11.8-9-16.1l-3.8-6.4h-8.9l11.7,19.7c3.2,5.5,4.7,8.1,6.3,11.8h11.7
		c-0.7-4.3-1-8.1-1-14.9v-16.6h-7.8V589.1z"/>
	<path d="M844,589.1c0,2.5,0.2,10.9,0.7,21.2c-4.8-9.1-6.4-11.8-9-16.1l-3.8-6.4H823l11.7,19.7c3.2,5.5,4.7,8.1,6.3,11.8h11.7
		c-0.7-4.3-1-8.1-1-14.9v-16.6H844V589.1z"/>
	<path d="M779.7,604c0,6.6-0.2,10.7-1,15.3h9.6c-0.7-4.5-1-8.5-1-15.3v-16.2h-7.6V604z"/>
	<polygon points="931.2,620.3 931.2,620.3 931.2,620.3 	"/>
	<path d="M870.4,603.9c0,6.5-0.2,10.7-1,15.8c4.5-0.3,7.4-0.4,13-0.4H918c6.3,0,9.4,0.3,13.2,1v-9.8c-4.4,0.7-7.9,1-13.2,1h-39.7
		v-23.7h-7.9V603.9z"/>
	<path d="M974.6,591.8c-1.1,4-2.5,9.4-3.8,15.6c-1.5-7.3-2.3-11.4-3.3-15.4l-1-4.1h-7.5l4.7,18c3,11,3,11,3.3,13.5h7.8
		c0.5-3.2,1-5.1,3.1-13.1l5.1-18.4h-7.2L974.6,591.8z"/>
	<path d="M1029.8,591.6c-0.2,0.8-0.9,4.1-3.3,15.7c-2.3-9.9-3.1-12.8-3.8-15.7l-1.1-3.8h-7.3l5.1,18.4c2.6,10.1,2.6,10.1,3.1,13.1v0
		h7.9c0.5-3,0.6-3.4,3.2-13.5l4.7-18h-7.6L1029.8,591.6z"/>
	<path d="M1138.1,604.4c0,6.2-0.2,10.1-1,14.9v0h10.1c-0.7-5-1-8.3-1-14.9v-16.6h-8.1V604.4z"/>
	<path d="M1244.7,603.6c-5.8,6.3-13.3,9.6-22.1,9.6c-14.7,0-25.9-9.7-30.9-25.4h-8.7c5.4,20.9,19.5,33.4,39.3,33.4
		c19.8,0,34-12.5,39.3-33.4h-8.6C1251.2,594.1,1248.4,599.5,1244.7,603.6z"/>
	<path d="M1332.8,595.5c5.3,13.6,7.2,19.7,7.4,23.8v0h11.2c-1.7-3.2-3.1-6.3-5.6-12.5c-2.9-7.3-5.2-12.9-7.9-19h-8.4
		C1330.6,590.1,1331.7,592.6,1332.8,595.5z"/>
	<path d="M1278.7,604.4c0,6.5-0.2,10.1-1,14.9h9.8c-0.7-4.8-1-8.3-1-14.9v-16.6h-7.8V604.4z"/>
	<path d="M1416.4,608.2c3.8,5.4,5.6,8.1,7,11.2h12.2c-3.3-3.3-4.4-4.8-11.3-14.5l-12.3-17h-10.1L1416.4,608.2z"/>
	<path d="M1363.6,604.4c0,6.2-0.2,10.2-1,14.9h9.8c-0.7-4.7-1-8.1-1-14.9v-16.6h-7.8V604.4z"/>
	<path d="M1551.5,601.1c-5.2,7.7-13.7,12-23.8,12c-14.9,0-26-9.4-30.9-25.3h-8.5c2.2,8.5,5.9,15.8,10.9,21.5
		c6.8,7.7,16.5,11.8,28,11.8c13.7,0,24.9-5.8,31.7-16.3c2.6-4.1,4.1-7.7,6.2-15.2l-6.3-1.9h-2.1
		C1555.6,593.8,1554.2,597.1,1551.5,601.1z"/>
	<path d="M1577.6,604.4c0,6.5-0.2,10.1-1,14.9h9.9c-0.7-4.4-1.1-9.2-1.1-14.9v-16.6h-7.8V604.4z"/>
	<path d="M1629.5,604.4c0,6.3-0.2,10.5-1,14.9h9.8c-0.7-4.8-1-8.4-1-14.9v-16.6h-7.8V604.4z"/>
	<path d="M1712.6,604.4c0,6.2-0.2,10.1-1,14.9v0h10.1c-0.7-5-1-8.3-1-14.9v-16.6h-8.1V604.4z"/>
	<rect x="1750.2" y="607.3" width="10.7" height="12"/>
	<g>
		<path d="M227.8,560.3c-3.3-3.2-6.3-4.7-11.9-5.8c5-1.8,7.2-3,9.6-5.4c4.4-4.3,6.7-10.3,6.7-18.2c0-16.1-9.9-25.1-27.4-25.1h-25.5
			c-7,0-9.3,0-13-0.3c0.7,4.5,1,8.3,1,14v58.2h7.8v-19.2h30.2c13.6,0,21.1,6.5,21.9,19.2h8C234.8,570.3,232.2,564.4,227.8,560.3z
			 M205.1,550.9L205.1,550.9l-30,0v-37.2H205c12.7,0,19.2,6.1,19.2,17.9C224.2,543.9,217.2,550.9,205.1,550.9z"/>
	</g>
	<path d="M288.3,505.8h-10.1c-0.5,2.9-1.6,6.1-4,12.7l-21.9,59.3h8.7l0.3-0.9h44.2l0.3,0.9h8.6l-21.9-59.3
		C289.3,510,288.7,508.2,288.3,505.8z M264,569.1l16.4-46.7c0.5-1.2,0.5-1.2,3-9.2c2.3,7.8,2.5,8,2.8,9.2l16.5,46.7H264z"/>
	<path d="M370.6,553.1c-14.2-3.3-14.2-3.3-17.8-5c-7.5-3.3-11.2-8.7-11.2-16.3c0-11.7,9.2-19.8,22.6-19.8c8.3,0,14.8,2.9,18.9,8.4
		c2.5,3.3,3.6,6.1,4.4,11.8l8.5-1.5c-1.2-6.9-2.5-10.2-5.2-14.2c-5.4-8.1-14.7-12.4-26.4-12.4c-18.6,0-30.7,11-30.7,27.8
		c0,9.7,4.1,17.1,12,21.8c4.1,2.3,8.5,3.9,16.4,5.8c14.2,3.3,15.9,4,20.1,6.6c4,2.5,6.4,6.4,7.2,11.6h8.1
		C396.3,564.5,388.3,557.3,370.6,553.1z"/>
	<path d="M453,558.8c6.2,0,9.1,0.3,13.3,1v-9.8c-4.8,0.7-8,1-13.3,1h-33v-37.2h38.5c6,0,9.3,0.3,13.3,1v-9.8c-4.3,0.7-8,1-13.3,1
		H424c-5.6,0-8.5-0.1-13-0.4c0.7,5.8,1,9.6,1,15.2v57.2h7.9v-19H453z"/>
	<path d="M548.4,518.1c-7.3-8.1-17.6-12.3-30.2-12.3h-20.4c-5.7,0-8.5-0.1-13-0.4c0.7,5.8,1,9.8,1,15.2h0v57.2h7.8v-64.1h25.2
		c21.5,0,33.7,15.6,33.7,42.8c0,8.1-1.1,15.2-3.1,21.3h8.4c1.8-6.3,2.7-13.4,2.7-21C560.5,540.1,556.4,526.9,548.4,518.1z"/>
	<path d="M627.8,505.8h-9.9c0.7,4.8,1,8.5,1,14.9v57.1h7.8v-57.1C626.6,515.4,627,510.2,627.8,505.8z"/>
	<path d="M661.5,517.7c-3.6-5.9-5.1-8.8-6-11.8h-11.2c0.7,4.8,1,8.7,1,14.9v57.1h7.6v-41.1c0-4.3-0.1-10.6-0.6-21.2
		c2.8,5.6,5.8,11.2,8.4,15.4l27.9,46.9h8.9L661.5,517.7z"/>
	<path d="M718.3,505.8h-9.8c0.7,4.7,1,8.7,1,15v56.9h7.8v-56.9C717.3,514.2,717.5,510.5,718.3,505.8z"/>
	<path d="M852.8,505.8H843c0.7,4.7,1,8.7,1,15v56.9h7.8v-56.9C851.8,514.2,852,510.5,852.8,505.8z"/>
	<path d="M796,517.7c-3.6-5.9-5.1-8.8-6-11.8h-11.2c0.7,4.8,1,8.7,1,14.9v57.1h7.6v-41.1c0-4.3-0.1-10.6-0.6-21.2
		c2.8,5.6,5.8,11.2,8.4,15.4l27.9,46.9h8.9L796,517.7z"/>
	<path d="M911.4,558.8c6.2,0,9.1,0.3,13.3,1v-9.8c-4.8,0.7-8,1-13.3,1h-33v-37.2h38.5c6,0,9.3,0.3,13.3,1v-9.8c-4.3,0.7-8,1-13.3,1
		h-34.5c-5.6,0-8.5-0.1-13-0.4c0.7,5.8,1,9.6,1,15.2v57.2h7.9v-19H911.4z"/>
	<path d="M1005.3,519.3c-1.6-5.7-2.3-9.4-3-13.5h-7.7c-0.4,3.2-1.5,8.5-2.8,13.5l-16.2,58.5h7.2l11.9-43.2c0.9-3.2,2.3-9.1,3.7-15.4
		c1,5.1,1.9,8.8,3.7,15.4l12,43.2h7.3L1005.3,519.3z"/>
	<path d="M1058,505.8h-10.5c-0.2,4.1-1,8.7-2.3,14.3l-14.5,57.6h7.6l14.8-56.5C1055,514,1056.2,510.2,1058,505.8z"/>
	<path d="M952,520.2c-1.4-5.8-2.2-10.3-2.3-14.3h-10.6c1.8,4.4,3.2,8.3,5.1,15.4l14.8,56.5h7.5L952,520.2z"/>
	<path d="M1174.5,517.3c3.7-6.3,5.4-9.1,7.3-11.4h-11.5c-1,3.2-2.2,5.9-5.9,12.4l-22.2,39.4l-22.1-39.4c-4.1-7-5.1-9.2-6.1-12.4
		h-11.3c2.1,2.9,4,5.9,7.2,11.4l28.3,48.4v12.2h8.1v-12L1174.5,517.3z"/>
	<path d="M1222.4,503.9c-11.4,0-21.1,4.3-28.5,12.4c-8.5,9.4-13.2,24-13.2,41.3c0,7.4,0.8,14.1,2.4,20.2h8.7
		c-1.9-6-2.9-12.8-2.9-20.3c0-27.5,13.3-45.7,33.7-45.7c8.8,0,16.4,3.5,22.3,9.9c7.3,8.1,11.1,20.4,11.1,35.8c0,7.4-1,14.3-2.8,20.3
		h8.6c1.6-6.1,2.4-12.8,2.4-20.2C1264.1,524.8,1247.9,503.9,1222.4,503.9z"/>
	<path d="M1323.7,558.6c6.5-1.6,9.5-3,13.2-6.5c5.2-5,7.7-11.4,7.7-20.4c0-16.8-9.6-25.9-27.3-25.9h-26.5c-5.4,0-8.5-0.1-13-0.4
		c0.7,5.6,1,9.8,1,15.3v57.1h7.8v-16.7h24.1c8.4,0,13.2,3.9,19,16.7h8.4c-0.6-1.3-1.2-2.7-1.8-4
		C1331.8,564.1,1328.5,560.2,1323.7,558.6z M1316.8,553.2L1316.8,553.2l-30.4,0v-39.5h31.2c12.2,0,18.8,6.6,18.8,19
		c0,6.1-1.6,10.8-4.8,14.3C1328.1,551,1322.7,553.2,1316.8,553.2z"/>
	<path d="M1418.3,519.9c0.2-0.3,1.7-1.9,4.1-4.8c1.4-1.5,3.2-3.4,5.3-5.8c1.2-1.4,1.8-1.9,3.2-3.4h-12.3c-1.5,3-3.6,5.9-8.1,11
		l-39.1,43.5v-39.7c0-6.6,0.2-10.5,1-14.9h-9.8c0.7,5,1,8.8,1,14.9v57.1h7.8v-6.4l14.6-16.1l16,22.5h10.1l-20.5-28.4L1418.3,519.9z"
		/>
	<path d="M1494,557.4c0-28,13.1-45.6,33.7-45.6c9.2,0,17,3.6,22.2,10.3c2.6,3.3,4,6.1,5.9,12.3l8-2.9c-3.1-8.3-5.3-12.1-9.4-16.7
		c-6.5-7.2-15.8-10.9-27-10.9c-11.6,0-20.9,3.9-27.9,11.7c-8.9,9.8-13.7,24.7-13.7,42.2c0,7.2,0.8,13.9,2.4,20h8.5
		C1495,571.8,1494,565,1494,557.4z"/>
	<path class="st1" d="M1556.7,587.8h2.1l-2-0.6C1556.8,587.4,1556.7,587.6,1556.7,587.8z"/>
	<path d="M1586.5,505.8h-9.9c0.7,4.8,1,8.5,1,14.9v57.1h7.8v-57.1C1585.4,515.4,1585.7,510.2,1586.5,505.8z"/>
	<path d="M1657.3,513.7c6.3,0,9.6,0.3,13.6,1v-9.8c-3.9,0.7-6.9,1-13.6,1h-47.8c-6.4,0-9.5-0.3-13.4-1v9.8c3.9-0.7,7.4-1,13.4-1h20
		v64.1h7.8v-64.1H1657.3z"/>
	<path d="M1748.9,517.3c3.7-6.3,5.4-9.1,7.3-11.4h-11.5c-1,3.2-2.2,5.9-5.9,12.4l-22.2,39.4l-22.1-39.4c-4.1-7-5.1-9.2-6.1-12.4
		h-11.3c2.1,2.9,4,5.9,7.2,11.4l28.3,48.4v12.2h8.1v-12L1748.9,517.3z"/>
</g>
</svg>
