<svg xml:space="preserve" id="Layer_1" x="0" y="0" version="1.1" viewBox="0 0 1920 1080"><path d="M1079.1 369.1c-.5-10.1-.7-18.4-.7-21.1h-11.2l2.9 4.9c2.6 4.3 4.2 7.1 9 16.2zM913.4 370.2c14.8 0 25.5-8 30.7-22.2h-55.3v22.2h24.6zM1407 371.9c8.8 0 16.3-3.3 22.1-9.6 3.4-3.8 6-8.6 7.9-14.3h-60.4c5.2 14.9 16.1 23.9 30.4 23.9zM1312.1 370.2c14.8 0 25.5-8 30.7-22.2h-55.3v22.2h24.6zM470.9 370.2c14.8 0 25.5-8 30.7-22.2h-55.3v22.2h24.6zM657.2 372.4c15.9 0 25.7-8.7 28-24.4h-55.9c2.3 15.5 12.3 24.4 27.9 24.4zM565.8 371.9c8.8 0 16.3-3.3 22.1-9.6 3.4-3.8 6-8.6 7.9-14.3h-60.4c5.2 14.9 16.2 23.9 30.4 23.9zM1528.1 369.1c-.5-10.1-.7-18.4-.7-21.1h-11.2l2.9 4.9c2.6 4.3 4.2 7.1 9 16.2z" class="st0"/><path d="M364.8 362.6c0 6.5-.2 10.7-1 15.8 4.4-.3 7.4-.4 13-.4h35.7c6.3 0 9.4.3 13.2 1v-9.8c-4.4.7-7.9 1-13.2 1h-39.7V348h-7.9v14.6zM425.7 379zM470.9 370.2h-24.6V348h-7.8v14.6c0 6.5-.2 10.6-1 15.8 4.3-.3 7.3-.4 13-.4H471c11.8 0 22.1-4.3 29.4-12.3 4.2-4.7 7.5-10.7 9.7-17.7h-8.5c-5.2 14.2-15.9 22.2-30.7 22.2zM587.9 362.3c-5.8 6.3-13.3 9.6-22.1 9.6-14.2 0-25.1-9.1-30.4-23.9h-8.8c5.6 20 19.6 31.9 38.9 31.9s33.3-11.9 38.9-31.9h-8.7c-1.8 5.7-4.5 10.5-7.8 14.3zM657.2 372.4c-15.7 0-25.6-8.9-28-24.4h-7.9c2.3 20.4 15 32.1 35.5 32.1 11.8 0 21.3-3.6 27.4-10.6 4.8-5.5 7.8-12.8 8.8-21.5h-7.9c-2.1 15.7-12 24.4-27.9 24.4zM704.9 362.3c-3.4 9.5-4.2 11-6.7 15.7h10.9c.9-4.4 2.1-9 4-13.9l5.8-16.1h-8.7l-5.3 14.3zM770.5 364.1c1.6 4.3 3 9.2 4 13.9h10.8c-2-3.6-3.6-7.4-6.7-15.7l-5.3-14.3h-8.7l5.9 16.1zM796.2 363.1c0 6.5-.2 10.1-1 14.9h9.8c-.7-4.8-1-8.3-1-14.9V348h-7.8v15.1zM850.3 354.2c5.3 13.6 7.2 19.7 7.4 23.8h11.2c-1.7-3.2-3.1-6.3-5.5-12.5-2.7-6.7-4.8-12-7.2-17.5h-8.4c.8 1.9 1.6 3.9 2.5 6.2zM913.4 370.2h-24.6V348H881v14.6c0 6.5-.2 10.6-1 15.8 4.3-.3 7.3-.4 13-.4h20.5c11.8 0 22.1-4.3 29.4-12.3 4.2-4.7 7.5-10.7 9.7-17.7h-8.5c-5.2 14.2-15.9 22.2-30.7 22.2zM1079.1 369.1c-4.8-9.1-6.4-11.9-9-16.1l-2.9-4.9h-8.9l10.8 18.2c3.2 5.5 4.7 8.1 6.3 11.9h11.7c-.7-4.3-1-8.1-1-14.9V348h-7.8c.1 2.7.3 10.9.8 21.1zM1014.1 362.7c0 6.6-.2 10.7-1 15.3h9.6c-.7-4.5-1-8.5-1-15.3V348h-7.6v14.7zM1103.6 362.3c-3.5 9.5-4.2 11-6.7 15.7h10.9c.9-4.4 2.1-9 3.9-13.9l5.8-16.1h-8.7l-5.2 14.3zM1169.2 364.1c1.6 4.3 3 9.2 3.9 13.9h10.8c-2-3.6-3.6-7.4-6.7-15.7l-5.3-14.3h-8.7l6 16.1zM1249 354.2c5.3 13.6 7.2 19.7 7.4 23.8h11.2c-1.7-3.2-3.1-6.3-5.6-12.5-2.7-6.7-4.8-12-7.2-17.5h-8.4c.9 1.9 1.7 3.9 2.6 6.2zM1194.9 363.1c0 6.5-.2 10.1-1 14.9h9.8c-.7-4.8-1-8.3-1-14.9V348h-7.8v15.1zM1312.1 370.2h-24.6V348h-7.8v14.6c0 6.5-.2 10.6-1 15.8 4.3-.3 7.3-.4 13-.4h20.5c11.8 0 22.1-4.3 29.4-12.3 4.2-4.7 7.5-10.7 9.7-17.7h-8.5c-5.2 14.2-15.9 22.2-30.7 22.2zM1429.1 362.3c-5.8 6.3-13.3 9.6-22.1 9.6-14.2 0-25.1-9.1-30.4-23.9h-8.8c5.6 20 19.6 31.9 38.9 31.9 19.3 0 33.3-11.9 38.9-31.9h-8.7c-1.8 5.7-4.5 10.5-7.8 14.3zM1528.1 369.1c-4.8-9.1-6.4-11.9-9-16.1l-2.9-4.9h-8.9l10.8 18.2c3.2 5.5 4.7 8.1 6.3 11.9h11.7c-.7-4.3-1-8.1-1-14.9V348h-7.8c.1 2.7.3 10.9.8 21.1zM1463.1 362.7c0 6.6-.2 10.7-1 15.3h9.6c-.7-4.5-1-8.5-1-15.3V348h-7.6v14.7zM1552.7 366h10.7v12h-10.7zM388.9 261.4l-2.5-3.6 23.6-21.9 6 8.4-27.1 17.1z"/><path d="m386.4 257.8 2.5 3.6 27.1-17.1-6-8.4zM405.8 317.5c6.2 0 9.1.3 13.3 1v-9.8c-4.8.7-8 1-13.3 1h-33v-37.2h38.5c6 0 9.3.3 13.3 1v-9.8c-4.3.7-8 1-13.3 1h-34.5c-5.6 0-8.5-.1-13-.4.7 5.8 1 9.6 1 15.2V338h7.9v-20.5h33.1zM501.2 276.8c-7.3-8.1-17.6-12.3-30.2-12.3h-20.4c-5.7 0-8.5-.1-13-.4.7 5.8 1 9.8 1 15.2V338h7.8v-65.6h25.2c21.5 0 33.7 15.6 33.7 42.9 0 8.7-1.2 16.4-3.6 22.8h8.5c2.1-6.7 3.1-14.2 3.1-22.5 0-16.8-4.1-30-12.1-38.8zM565.5 262.6c-11.3 0-21.1 4.3-28.5 12.4-8.5 9.4-13.2 24-13.2 41.3 0 8 1 15.2 2.8 21.7h8.8c-2.2-6.3-3.4-13.6-3.4-21.8 0-27.5 13.3-45.7 33.7-45.7 8.8 0 16.4 3.4 22.3 9.9 7.3 8.1 11.1 20.4 11.1 35.8 0 8-1.1 15.4-3.3 21.8h8.7c1.8-6.4 2.8-13.7 2.8-21.7-.1-32.7-16.2-53.7-41.8-53.7zM628.7 330.5v-51c0-6.8.2-10.5 1-15H620c.7 4.7 1 8.5 1 15V331c0 2.4.1 4.7.4 6.9h7.9c-.4-2.2-.6-4.7-.6-7.4zM693.5 279.3c0-6.5.2-10.1 1-14.7h-9.8c.7 4.8 1 8.7 1 15v51c0 2.6-.2 5.1-.5 7.5h7.9c.3-2.2.4-4.5.4-6.9v-51.9zM750.9 277.2c-3.2-8.5-3.8-10.3-4.2-12.7h-10.1c-.5 2.9-1.6 6.1-4 12.7L710.1 338h8.7l.9-2.4h44.2l.9 2.4h8.7l-22.6-60.8zm-28.5 50.6 16.4-46.7c.5-1.2.5-1.2 3-9.2 2.4 7.8 2.5 8 2.8 9.2l16.5 46.7h-38.7zM841.2 317.3c6.5-1.7 9.5-3 13.2-6.5 5.2-5 7.7-11.4 7.7-20.4 0-16.8-9.6-25.9-27.3-25.9h-26.5c-5.4 0-8.5-.1-13-.4.7 5.7 1 9.8 1 15.3V338h7.8v-18.2h24.1c8.7 0 13.6 4.2 19.7 18.2h8.4c-.8-1.8-1.6-3.6-2.5-5.5-4.5-9.7-7.8-13.5-12.6-15.2zm-6.9-5.4H804v-39.5h31.2c12.2 0 18.8 6.6 18.8 19 0 6.1-1.6 10.8-4.8 14.3-3.6 4-9.1 6.2-14.9 6.2zM943.6 276.8c-7.3-8.1-17.6-12.3-30.2-12.3H893c-5.7 0-8.5-.1-13-.4.7 5.8 1 9.8 1 15.2V338h7.8v-65.6H914c21.5 0 33.7 15.6 33.7 42.9 0 8.7-1.2 16.4-3.6 22.8h8.5c2.1-6.7 3.1-14.2 3.1-22.5 0-16.8-4-30-12.1-38.8zM1087.2 264.5h-9.8c.7 4.7 1 8.7 1 15V338h7.8v-58.4c0-6.7.2-10.4 1-15.1zM1030.4 276.4c-3.6-5.9-5.1-8.8-6.1-11.8h-11.2c.7 4.8 1 8.7 1 14.9V338h7.6v-42.6c0-4.3-.1-10.6-.6-21.2 2.8 5.6 5.8 11.2 8.4 15.4l28.8 48.4h8.9l-36.8-61.6zM1145.4 264.5h-10.1c-.5 2.9-1.6 6.1-3.9 12.7l-22.5 60.8h8.7l.9-2.4h44.2l.9 2.4h8.7l-22.5-60.8c-3.4-8.5-4-10.3-4.4-12.7zm-24.3 63.3 16.4-46.7c.5-1.2.5-1.2 3-9.2 2.3 7.8 2.5 8 2.8 9.2l16.5 46.7h-38.7zM1239.9 317.3c6.5-1.7 9.5-3 13.2-6.5 5.2-5 7.7-11.4 7.7-20.4 0-16.8-9.6-25.9-27.3-25.9H1207c-5.4 0-8.5-.1-13-.4.7 5.7 1 9.8 1 15.3V338h7.8v-18.2h24.1c8.7 0 13.6 4.2 19.7 18.2h8.4c-.8-1.8-1.6-3.6-2.5-5.5-4.5-9.7-7.8-13.5-12.6-15.2zm-6.8-5.4h-30.4v-39.5h31.2c12.2 0 18.8 6.6 18.8 19 0 6.1-1.6 10.8-4.8 14.3-3.6 4-9 6.2-14.8 6.2zM1342.3 276.8c-7.3-8.1-17.6-12.3-30.2-12.3h-20.4c-5.7 0-8.5-.1-13-.4.7 5.8 1 9.8 1 15.2V338h7.8v-65.6h25.2c21.5 0 33.7 15.6 33.7 42.9 0 8.7-1.2 16.4-3.6 22.8h8.5c2.1-6.7 3.1-14.2 3.1-22.5 0-16.8-4-30-12.1-38.8zM1406.7 262.6c-11.3 0-21.1 4.3-28.5 12.4-8.5 9.4-13.2 24-13.2 41.3 0 8 1 15.2 2.8 21.7h8.8c-2.2-6.3-3.4-13.6-3.4-21.8 0-27.5 13.3-45.7 33.7-45.7 8.8 0 16.4 3.4 22.3 9.9 7.3 8.1 11.1 20.4 11.1 35.8 0 8-1.1 15.4-3.3 21.8h8.7c1.8-6.4 2.8-13.7 2.8-21.7-.1-32.7-16.2-53.7-41.8-53.7zM1479.4 276.4c-3.6-5.9-5.1-8.8-6.1-11.8h-11.2c.7 4.8 1 8.7 1 14.9V338h7.6v-42.6c0-4.3-.1-10.6-.6-21.2 2.8 5.6 5.8 11.2 8.4 15.4l28.8 48.4h8.9l-36.8-61.6zM1536.2 264.5h-9.8c.7 4.7 1 8.7 1 15V338h7.8v-58.4c0-6.7.2-10.4 1-15.1z"/></svg>