<?xml version="1.0" encoding="utf-8"?>
<!-- Generator: Adobe Illustrator 24.3.0, SVG Export Plug-In . SVG Version: 6.00 Build 0)  -->
<svg version="1.1" id="Layer_1" xmlns="http://www.w3.org/2000/svg" xmlns:xlink="http://www.w3.org/1999/xlink" x="0px" y="0px"
	 viewBox="0 0 1920 1080" style="enable-background:new 0 0 1920 1080;" xml:space="preserve">
<style type="text/css">
	.st0{fill:none;}
	.st1{fill:#FFFFFF;stroke:#000000;stroke-miterlimit:10;}
</style>
<g>
	<path class="st0" d="M449.7,733.9c8.8,0,16.3-3.3,22.1-9.6c3.4-3.8,6-8.6,7.9-14.3h-60.4C424.5,724.8,435.5,733.9,449.7,733.9z"/>
	<path class="st0" d="M1233.6,734.3c15.9,0,25.7-8.7,28-24.4h-55.9C1208,725.5,1218,734.3,1233.6,734.3z"/>
	<path class="st0" d="M1078.4,731c-0.5-10.1-0.7-18.4-0.7-21h-11.2l2.9,4.9C1072,719.2,1073.6,721.9,1078.4,731z"/>
	<path class="st0" d="M789,731c-0.5-10.1-0.7-18.4-0.7-21h-11.2l2.9,4.9C782.6,719.2,784.2,721.9,789,731z"/>
	<path class="st0" d="M1142.2,733.9c6.1,0,10.6-1.2,15.6-4.4c-4.3-4.7-6.5-6.9-10.1-9.8l5.9-6.5c2,2.8,3.9,5.1,9.8,11.7
		c4.2-4.8,5.7-7.3,7.4-11.8c0.4-1,0.8-2.1,1.1-3.1h-60.6C1116.5,725,1127.5,733.9,1142.2,733.9z"/>
	<path class="st0" d="M1527.7,733.9c15.3,0,24.6-8.1,24.6-21.8c0-0.7,0-1.5-0.1-2.2h-49.8c0.4,6.6,1.4,10.1,3.9,14
		C1510.6,730.3,1518.2,733.9,1527.7,733.9z"/>
	<path d="M344.2,724.9c0,6.5-0.2,10.3-1,15h10c-0.7-4.8-1-8.3-1-15.2V710h-8V724.9z"/>
	<path d="M471.8,724.2c-5.8,6.3-13.3,9.7-22.1,9.6c-14.2,0-25.1-9-30.4-23.9h-8.8c5.6,20,19.6,31.9,38.9,31.9s33.3-11.9,38.9-31.9
		h-8.7C477.8,715.6,475.1,720.5,471.8,724.2z"/>
	<path d="M559.8,716.1c5.3,13.6,7.2,19.7,7.4,23.8v0h11.2c-1.7-3.2-3.1-6.3-5.5-12.5c-2.7-6.7-4.8-12-7.2-17.5h-8.4
		C558.1,711.8,559,713.9,559.8,716.1z"/>
	<path d="M505.8,725.1c0,6.5-0.2,10.1-1,14.9h9.8c-0.7-4.8-1-8.3-1-14.9V710h-7.8V725.1z"/>
	<path d="M632.6,724.2c-3.4,9.5-4.2,11-6.7,15.7h10.9c0.9-4.4,2.1-9,4-13.9l5.8-16.1h-8.7L632.6,724.2z"/>
	<path d="M698.3,726c1.6,4.3,3,9.2,4,13.9h10.9c-2-3.6-3.6-7.4-6.7-15.7l-5.3-14.3h-8.7L698.3,726z"/>
	<path d="M789,731c-4.8-9.1-6.4-11.8-9-16.1l-2.9-4.9h-8.8l10.8,18.1c3.2,5.5,4.7,8.1,6.3,11.8H797c-0.7-4.3-1-8.1-1-14.9V710h-7.8
		C788.3,712.6,788.5,720.9,789,731z"/>
	<path d="M724,724.7c0,6.6-0.2,10.7-1,15.3h9.6c-0.7-4.5-1-8.5-1-15.3V710H724V724.7z"/>
	<path d="M842.2,725.1c0,6.2-0.2,10.1-1,14.9v0h10.1c-0.7-5-1-8.3-1-14.9V710h-8.1V725.1z"/>
	<polygon points="1000.4,740.9 1000.4,740.9 1000.4,740.9 	"/>
	<path d="M939.6,724.5c0,6.5-0.2,10.7-1,15.8c4.5-0.3,7.4-0.4,13-0.4h35.7c6.3,0,9.4,0.3,13.2,1v-9.8c-4.4,0.7-7.9,1-13.2,1h-39.7
		V710h-7.9V724.5z"/>
	<path d="M1078.4,731c-4.8-9.1-6.4-11.8-9-16.1l-2.9-4.9h-8.9l10.8,18.1c3.2,5.5,4.7,8.1,6.3,11.8h11.7c-0.7-4.3-1-8.1-1-14.9V710
		h-7.8C1077.7,712.6,1077.9,720.9,1078.4,731z"/>
	<path d="M1013.4,724.7c0,6.6-0.2,10.7-1,15.3h9.6c-0.7-4.5-1-8.5-1-15.3V710h-7.6V724.7z"/>
	<path d="M1170.7,713.1c-1.7,4.5-3.2,7-7.4,11.8c-5.8-6.6-7.8-9-9.8-11.7l-5.9,6.5c3.6,2.9,5.8,5.1,10.1,9.8
		c-4.9,3.2-9.5,4.4-15.6,4.4c-14.7,0-25.7-8.9-30.9-23.9h-8.6c5.7,19.9,19.7,31.9,38.9,31.9c8.4,0,14.6-1.9,21.5-6.5
		c7,8,8.2,9.4,10.5,12.8l5.7-6.6c-3.3-3-5.4-5.1-10.5-10.8c5.6-6.5,7.7-9.8,10.1-16c0.6-1.6,1.1-3.2,1.6-4.9h-8.7
		C1171.5,711,1171.1,712.1,1170.7,713.1z"/>
	<path d="M1233.6,734.3c-15.6,0-25.6-8.8-28-24.4h-7.9c2.3,20.4,15,32.1,35.5,32.1c11.8,0,21.3-3.6,27.4-10.6
		c4.8-5.5,7.8-12.8,8.8-21.4h-7.9C1259.3,725.6,1249.5,734.3,1233.6,734.3z"/>
	<path d="M1287.7,725.1c0,6.5-0.2,10.1-1,14.9h9.9c-0.7-4.4-1.1-9.2-1.1-14.9V710h-7.8V725.1z"/>
	<path d="M1314.1,725.1c0,6.5-0.2,10.1-1,14.9h9.8c-0.7-4.8-1-8.3-1-14.9V710h-7.8V725.1z"/>
	<path d="M1368.1,716.1c5.3,13.6,7.2,19.7,7.4,23.8v0h11.2c-1.7-3.2-3.1-6.3-5.6-12.5c-2.7-6.7-4.8-12-7.2-17.5h-8.4
		C1366.4,711.8,1367.3,713.9,1368.1,716.1z"/>
	<path d="M1398.9,725.1c0,6.5-0.2,10.1-1,14.9h9.9c-0.7-4.4-1.1-9.2-1.1-14.9V710h-7.8V725.1z"/>
	<path d="M1425.3,724.5c0,6.5-0.2,10.7-1,15.8c4.4-0.3,7.4-0.4,13-0.4h35.7c6.3,0,9.4,0.3,13.2,1v-9.8c-4.4,0.7-7.9,1-13.2,1h-39.7
		V710h-7.9V724.5z"/>
	<path d="M1552.3,712.1c0,13.6-9.3,21.8-24.6,21.8c-9.5,0-17.2-3.6-21.3-9.9c-2.6-4-3.6-7.4-3.9-14h-1.2l-7.7,1.2
		c1.1,8.5,2.4,12.5,5.4,17.4c5.4,8.5,15.6,13.2,29,13.2c20.5,0,32.3-10.9,32.3-29.8c0-0.7,0-1.4-0.1-2h-8.1
		C1552.3,710.7,1552.3,711.4,1552.3,712.1z"/>
	<path d="M1573.2,740h6.3c0,8.7-0.7,10.6-5.1,13.1l3.1,3.9c5.3-4,6.5-7.2,6.5-17h0v-12h-10.9V740z"/>
	<path d="M381.7,679.8c6.2,0,9.5,0.3,13.3,1v-9.9c-4.6,0.7-7.8,1-13.3,1h-29.5v-37.3h36.3c6.2,0,9.4,0.3,13.5,1v-9.9
		c-4.8,0.7-7.9,1-13.5,1h-32.3c-5.6,0-8.5-0.1-13-0.4c0.7,5.5,1,9.8,1,15.3V700h8v-20.1H381.7z"/>
	<path d="M449.4,624.6c-11.3,0-21.1,4.3-28.5,12.4c-8.5,9.4-13.2,24-13.2,41.3c0,8,1,15.2,2.8,21.7h8.8c-2.2-6.3-3.4-13.7-3.4-21.8
		c0-27.5,13.3-45.7,33.7-45.7c8.8,0,16.4,3.5,22.3,9.9c7.3,8.1,11.1,20.4,11.1,35.8c0,8-1.2,15.4-3.3,21.8h8.7
		c1.8-6.4,2.8-13.7,2.8-21.7C491.1,645.5,475,624.5,449.4,624.6z"/>
	<g>
		<path d="M550.7,679.2c6.5-1.6,9.5-3,13.2-6.5c5.2-5,7.7-11.4,7.7-20.4c0-16.8-9.6-25.9-27.3-25.9h-26.5c-5.4,0-8.5-0.1-13-0.4
			c0.7,5.6,1,9.8,1,15.3V700h7.8v-18.2h24.1c8.7,0,13.6,4.2,19.7,18.2h8.4c-0.8-1.8-1.6-3.6-2.5-5.6
			C558.9,684.8,555.5,680.9,550.7,679.2z M543.9,673.9L543.9,673.9l-30.4,0v-39.5h31.2c12.2,0,18.8,6.6,18.8,19
			c0,6.1-1.6,10.8-4.8,14.3C555.1,671.7,549.7,673.9,543.9,673.9z"/>
	</g>
	<g>
		<path d="M678.7,639.2c-3.2-8.5-3.8-10.3-4.2-12.7h-10.1c-0.5,2.9-1.6,6.1-4,12.7L637.9,700h8.7l0.9-2.4h44.2l0.9,2.4h8.7
			L678.7,639.2z M650.2,689.7l16.4-46.7c0.5-1.2,0.5-1.2,3-9.2c2.4,7.8,2.5,8,2.8,9.2l16.5,46.7H650.2z"/>
	</g>
	<path d="M797,626.5h-9.8c0.7,4.7,1,8.7,1,15v58.3c0,0.1,0,0.1,0,0.2h7.8v-58.5C796,634.9,796.3,631.2,797,626.5z"/>
	<path d="M740.3,638.3c-3.6-5.9-5.1-8.8-6-11.8H723c0.7,4.8,1,8.7,1,14.9V700h7.7v-42.6c0-4.3-0.1-10.6-0.6-21.2
		c2.8,5.6,5.8,11.2,8.4,15.4l28.8,48.4h8.8L740.3,638.3z"/>
	<path d="M878.6,637.9c3.7-6.3,5.4-9.1,7.3-11.4h-11.5c-1,3.2-2.2,5.9-5.9,12.4l-22.2,39.4l-22.1-39.4c-4.1-7-5.1-9.2-6-12.4h-11.3
		c2.1,2.9,3.9,5.9,7.2,11.4l28.3,48.4V700h8.1v-13.5L878.6,637.9z"/>
	<path d="M980.6,679.4c6.2,0,9.1,0.3,13.3,1v-9.8c-4.8,0.7-8,1-13.3,1h-33v-37.2h38.5c6,0,9.3,0.3,13.3,1v-9.8c-4.3,0.7-8,1-13.3,1
		h-34.5c-5.6,0-8.5-0.1-13-0.4c0.7,5.8,1,9.6,1,15.2V700h7.9v-20.6H980.6z"/>
	<path d="M1029.7,638.3c-3.6-5.9-5.1-8.8-6.1-11.8h-11.2c0.7,4.8,1,8.7,1,14.9V700h7.6v-42.6c0-4.3-0.1-10.6-0.6-21.2
		c2.8,5.6,5.8,11.2,8.4,15.4l28.8,48.4h8.9L1029.7,638.3z"/>
	<path d="M1086.4,626.5h-9.8c0.7,4.7,1,8.7,1,15v58.3c0,0.1,0,0.1,0,0.2h7.8v-58.5C1085.4,634.9,1085.7,631.2,1086.4,626.5z"/>
	<path d="M1141.7,624.6c-25.4,0-41.8,21.1-41.8,53.7c0,8,1,15.2,2.8,21.7h8.6c-2.2-6.3-3.4-13.6-3.4-21.8
		c0-27.5,13.4-45.7,33.7-45.7s33.4,17.9,33.4,45.5c0,8.2-1,15.5-3.2,22.1h8.7c1.9-6.5,2.8-13.7,2.8-21.7
		C1183.3,645.5,1167,624.6,1141.7,624.6z"/>
	<path d="M1269.9,641.2c0-6.5,0.2-10.1,1-14.7h-9.8c0.7,4.8,1,8.7,1,15v51c0,2.6-0.2,5.1-0.5,7.5h7.9c0.3-2.2,0.4-4.5,0.4-6.9V641.2
		z"/>
	<path d="M1205.1,692.5v-51c0-6.8,0.2-10.5,1-15h-9.8c0.7,4.7,1,8.5,1,15V693c0,2.4,0.1,4.7,0.4,6.9h7.9
		C1205.3,697.6,1205.1,695.1,1205.1,692.5z"/>
	<path d="M1296.6,626.5h-9.9c0.7,4.8,1,8.5,1,14.9V700h7.8v-58.6C1295.5,636,1295.9,630.9,1296.6,626.5z"/>
	<g>
		<path d="M1359,679.2c6.5-1.6,9.5-3,13.2-6.5c5.2-5,7.7-11.4,7.7-20.4c0-16.8-9.6-25.9-27.3-25.9h-26.5c-5.4,0-8.5-0.1-13-0.4
			c0.7,5.6,1,9.8,1,15.3V700h7.8v-18.2h24.1c8.7,0,13.6,4.2,19.7,18.2h8.4c-0.8-1.8-1.6-3.6-2.5-5.6
			C1367.2,684.8,1363.8,680.9,1359,679.2z M1352.2,673.9L1352.2,673.9l-30.4,0v-39.5h31.2c12.2,0,18.8,6.6,18.8,19
			c0,6.1-1.6,10.8-4.8,14.3C1363.4,671.7,1358,673.9,1352.2,673.9z"/>
	</g>
	<path d="M1407.8,626.5h-9.9c0.7,4.8,1,8.5,1,14.9V700h7.8v-58.6C1406.7,636,1407.1,630.9,1407.8,626.5z"/>
	<path d="M1466.2,679.4c6.2,0,9.1,0.3,13.3,1v-9.8c-4.8,0.7-8,1-13.3,1h-32.9v-37.2h38.5c6,0,9.3,0.3,13.3,1v-9.8
		c-4.3,0.7-8,1-13.3,1h-34.6c-5.6,0-8.5-0.1-13-0.4c0.7,5.8,1,9.6,1,15.2V700h7.9v-20.6H1466.2z"/>
	<path class="st1" d="M1502.4,709.8l-1.1,0.2h1.2C1502.5,709.9,1502.5,709.8,1502.4,709.8z"/>
	<path d="M1533.3,673.7c-14.2-3.3-14.2-3.3-17.8-5c-7.5-3.3-11.2-8.7-11.2-16.3c0-11.7,9.2-19.8,22.6-19.8c8.3,0,14.8,2.9,18.9,8.4
		c2.5,3.3,3.6,6.1,4.4,11.8l8.5-1.5c-1.2-6.9-2.5-10.2-5.2-14.2c-5.4-8.1-14.7-12.4-26.4-12.4c-18.6,0-30.7,11-30.7,27.8
		c0,9.7,4.1,17.1,12,21.8c4.1,2.3,8.5,3.9,16.4,5.8c14.2,3.3,15.9,4,20.1,6.6c4.4,2.7,6.8,7.2,7.3,13.1h8.1
		C1559.6,685.7,1551.7,678.1,1533.3,673.7z"/>
</g>
</svg>
